<svg width="399" height="385" viewBox="0 0 399 385" fill="none" xmlns="http://www.w3.org/2000/svg">
<g clip-path="url(#clip0)">
<path d="M4 279L271.494 124L387.911 191.429L120.295 346.492L4 279Z" fill="#F2F5F7" fill-opacity="0.3" stroke="#151515" stroke-width="0.5" stroke-linejoin="round"/>
<path d="M271.494 0V62L4 217V155L271.494 0Z" fill="white" fill-opacity="0.1" stroke="#151515" stroke-width="0.5" stroke-linejoin="round"/>
<path d="M271.494 62V124L4 279V217L271.494 62Z" fill="white" fill-opacity="0.1" stroke="#151515" stroke-width="0.5" stroke-linejoin="round"/>
<path d="M271.496 62V124L387.741 191.107V129.107L271.496 62Z" fill="white" fill-opacity="0.1" stroke="#151515" stroke-width="0.5" stroke-linejoin="round"/>
<path d="M207.666 103.379C217.424 103.404 225.354 95.513 225.378 85.7554C225.402 75.9977 217.511 68.0679 207.754 68.0438C197.996 68.0196 190.066 75.9102 190.042 85.6678C190.018 95.4255 197.909 103.355 207.666 103.379Z" fill="#E84142"/>
<path opacity="0.1" d="M217.097 100.592C225.323 95.3436 227.737 84.4205 222.489 76.1944C222.489 76.1944 220.538 87.2695 212.312 92.5177C204.086 97.766 192.699 95.2 192.699 95.2C197.947 103.426 208.871 105.84 217.097 100.592Z" fill="#151515"/>
<path d="M207.666 103.379C217.424 103.404 225.354 95.513 225.378 85.7554C225.402 75.9977 217.511 68.0679 207.754 68.0438C197.996 68.0196 190.066 75.9102 190.042 85.6678C190.018 95.4255 197.909 103.355 207.666 103.379Z" stroke="#151515" stroke-width="0.25" stroke-linejoin="round"/>
<path fill-rule="evenodd" clip-rule="evenodd" d="M137.668 172.433C139.693 167.311 142.877 163.769 144.779 164.521C144.801 164.53 144.823 164.539 144.845 164.549L173.709 176.591C175.614 177.344 175.509 182.105 173.485 187.225C171.46 192.346 168.281 195.89 166.375 195.136L137.468 183.077C137.461 183.074 137.453 183.071 137.446 183.068C135.544 182.316 135.643 177.554 137.668 172.433Z" fill="#151515"/>
<path d="M144.779 164.521L144.83 164.393V164.393L144.779 164.521ZM137.668 172.433L137.797 172.484L137.668 172.433ZM144.845 164.549L144.788 164.675L144.792 164.677L144.845 164.549ZM173.709 176.591L173.656 176.719L173.658 176.72L173.709 176.591ZM173.485 187.225L173.613 187.276L173.485 187.225ZM166.375 195.136L166.322 195.264L166.325 195.265L166.375 195.136ZM137.468 183.077L137.522 182.949L137.517 182.947L137.468 183.077ZM137.446 183.068L137.395 183.197L137.395 183.197L137.446 183.068ZM144.83 164.393C144.304 164.185 143.705 164.28 143.087 164.597C142.469 164.914 141.817 165.459 141.167 166.182C139.866 167.629 138.557 169.81 137.54 172.382L137.797 172.484C138.805 169.934 140.1 167.784 141.373 166.367C142.01 165.658 142.636 165.139 143.214 164.843C143.791 164.547 144.303 164.482 144.728 164.65L144.83 164.393ZM144.902 164.423C144.879 164.413 144.855 164.402 144.83 164.393L144.728 164.65C144.748 164.658 144.768 164.666 144.788 164.675L144.902 164.423ZM173.762 176.463L144.898 164.422L144.792 164.677L173.656 176.719L173.762 176.463ZM173.613 187.276C174.63 184.705 175.167 182.218 175.209 180.274C175.23 179.302 175.127 178.457 174.893 177.804C174.659 177.15 174.287 176.67 173.76 176.462L173.658 176.72C174.084 176.888 174.413 177.286 174.632 177.897C174.851 178.508 174.953 179.315 174.932 180.268C174.891 182.172 174.364 184.626 173.356 187.175L173.613 187.276ZM166.325 195.265C166.851 195.473 167.451 195.378 168.069 195.061C168.687 194.744 169.339 194.199 169.988 193.476C171.288 192.029 172.596 189.848 173.613 187.276L173.356 187.175C172.348 189.724 171.055 191.874 169.782 193.291C169.146 194 168.519 194.519 167.942 194.815C167.365 195.111 166.852 195.176 166.426 195.007L166.325 195.265ZM137.415 183.204L166.322 195.264L166.429 195.008L137.522 182.949L137.415 183.204ZM137.395 183.197C137.403 183.2 137.412 183.203 137.42 183.206L137.517 182.947C137.51 182.944 137.504 182.942 137.497 182.939L137.395 183.197ZM137.54 172.382C136.523 174.954 135.987 177.441 135.946 179.386C135.926 180.358 136.029 181.202 136.263 181.856C136.497 182.509 136.869 182.989 137.395 183.197L137.497 182.939C137.072 182.771 136.743 182.373 136.524 181.762C136.305 181.152 136.203 180.344 136.223 179.392C136.263 177.487 136.789 175.033 137.797 172.484L137.54 172.382Z" fill="#151515"/>
<path d="M144.78 164.521C142.877 163.769 139.694 167.311 137.669 172.433C135.644 177.554 135.544 182.316 137.446 183.068C139.349 183.82 142.532 180.278 144.557 175.156C146.582 170.035 146.682 165.273 144.78 164.521Z" fill="#3E3E3E" stroke="#151515" stroke-width="0.276932" stroke-linejoin="round"/>
<path opacity="0.2" d="M146.574 175.363C143.254 176.51 138.907 174.885 137.148 173.928C137.516 172.781 138.088 171.436 138.328 170.906C142.795 172.832 145.004 172.153 145.55 171.572L148.982 166.194L151.031 167.013L146.574 175.363Z" fill="#151515"/>
<path fill-rule="evenodd" clip-rule="evenodd" d="M135.311 169.316C130.594 166.472 127.627 162.747 128.684 160.995C128.696 160.975 128.709 160.954 128.722 160.935L145.37 134.459C146.428 132.704 151.106 133.594 155.821 136.438C160.536 139.282 163.505 143.002 162.447 144.757L145.775 171.273C145.771 171.28 145.767 171.287 145.763 171.293C144.706 173.045 140.027 172.16 135.311 169.316Z" fill="#56D62A"/>
<path d="M128.684 160.995L128.565 160.924L128.565 160.924L128.684 160.995ZM135.311 169.316L135.382 169.197L135.311 169.316ZM128.722 160.935L128.837 161.012L128.839 161.008L128.722 160.935ZM145.37 134.459L145.487 134.532L145.488 134.53L145.37 134.459ZM155.821 136.438L155.892 136.319L155.821 136.438ZM162.447 144.757L162.564 144.831L162.566 144.829L162.447 144.757ZM145.775 171.273L145.658 171.199L145.655 171.203L145.775 171.273ZM145.763 171.293L145.881 171.365L145.881 171.365L145.763 171.293ZM128.565 160.924C128.273 161.408 128.268 162.015 128.478 162.676C128.689 163.338 129.119 164.072 129.724 164.832C130.936 166.354 132.871 168.006 135.239 169.434L135.382 169.197C133.034 167.782 131.127 166.15 129.941 164.66C129.347 163.914 128.939 163.211 128.742 162.592C128.546 161.974 128.566 161.458 128.802 161.067L128.565 160.924ZM128.607 160.857C128.593 160.879 128.579 160.901 128.565 160.924L128.802 161.067C128.813 161.048 128.825 161.03 128.837 161.012L128.607 160.857ZM145.252 134.385L128.605 160.861L128.839 161.008L145.487 134.532L145.252 134.385ZM155.892 136.319C153.524 134.891 151.161 133.951 149.25 133.588C148.295 133.407 147.445 133.369 146.761 133.492C146.078 133.614 145.544 133.902 145.251 134.387L145.488 134.53C145.725 134.138 146.172 133.879 146.81 133.764C147.449 133.649 148.262 133.683 149.198 133.86C151.069 134.215 153.402 135.141 155.749 136.557L155.892 136.319ZM162.566 144.829C162.858 144.343 162.863 143.736 162.653 143.075C162.443 142.413 162.013 141.68 161.407 140.92C160.195 139.399 158.26 137.747 155.892 136.319L155.749 136.557C158.097 137.972 160.004 139.603 161.191 141.092C161.784 141.837 162.193 142.541 162.389 143.159C162.586 143.777 162.565 144.293 162.329 144.686L162.566 144.829ZM145.892 171.346L162.564 144.831L162.33 144.683L145.658 171.199L145.892 171.346ZM145.881 171.365C145.886 171.357 145.89 171.35 145.895 171.342L145.655 171.203C145.651 171.209 145.648 171.216 145.644 171.222L145.881 171.365ZM135.239 169.434C137.608 170.863 139.972 171.802 141.883 172.164C142.839 172.345 143.688 172.383 144.372 172.26C145.055 172.137 145.589 171.849 145.881 171.365L145.644 171.222C145.408 171.613 144.961 171.872 144.323 171.987C143.684 172.102 142.871 172.069 141.935 171.892C140.063 171.538 137.73 170.613 135.382 169.197L135.239 169.434Z" fill="#151515"/>
<path d="M128.684 160.995C127.628 162.747 130.595 166.472 135.311 169.316C140.028 172.16 144.707 173.045 145.763 171.294C146.82 169.542 143.853 165.816 139.136 162.973C134.42 160.129 129.741 159.244 128.684 160.995Z" fill="black" fill-opacity="0.1" stroke="#151515" stroke-width="0.276932" stroke-linejoin="round"/>
<path d="M294.041 143.568L312.839 152.228L316.968 172.492L298.227 163.736" fill="#56D62A"/>
<path d="M294.041 143.568L312.839 152.228L316.968 172.492L298.227 163.736L294.041 143.568Z" stroke="#151515" stroke-width="0.25" stroke-linejoin="round"/>
<path d="M298.556 186.992L279.856 178.23L298.246 163.746L316.947 172.507L298.556 186.992Z" fill="#358D16" stroke="#151515" stroke-width="0.25" stroke-linejoin="round"/>
<path d="M298.245 163.745L294.047 143.564L275.655 158.05L279.855 178.228" fill="#78F74C"/>
<path d="M298.245 163.745L294.047 143.564L275.655 158.05L279.855 178.228L298.245 163.745Z" stroke="#151515" stroke-width="0.25" stroke-linejoin="round"/>
<path opacity="0.2" d="M295.902 152.246C291.086 153.43 287.513 151.028 286.328 149.679L294.125 143.658L302.416 147.409C302.89 152.226 298.271 152.64 295.902 152.246Z" fill="#151515"/>
<path fill-rule="evenodd" clip-rule="evenodd" d="M138.446 257.057L167.445 245.314L158.986 275.715C158.638 277.266 158.284 278.44 157.367 279.466C153.826 283.406 145.88 282.043 139.62 276.417C133.361 270.79 131.149 263.043 134.684 259.104C135.653 258.021 136.901 257.713 138.446 257.057Z" fill="#FFAD28" stroke="#151515" stroke-width="0.25" stroke-linejoin="round"/>
<path opacity="0.1" fill-rule="evenodd" clip-rule="evenodd" d="M151.947 264.302C155.445 268.302 160.718 275.72 157.367 279.466C153.827 283.406 145.88 282.043 139.621 276.417C133.361 270.79 131.149 263.043 134.684 259.104C138.95 254.335 148.448 260.302 151.947 264.302Z" fill="black" stroke="#151515" stroke-width="0.25" stroke-linejoin="round"/>
<path fill-rule="evenodd" clip-rule="evenodd" d="M248.491 164.041L219.492 152.298L227.952 182.7C228.3 184.25 228.653 185.424 229.571 186.451C233.111 190.39 241.058 189.027 247.317 183.401C253.576 177.774 255.788 170.027 252.254 166.088C251.285 165.005 250.036 164.697 248.491 164.041Z" fill="#5E17FE" stroke="#151515" stroke-width="0.25" stroke-linejoin="round"/>
<path opacity="0.1" fill-rule="evenodd" clip-rule="evenodd" d="M234.991 171.286C231.492 175.286 226.219 182.704 229.571 186.451C233.111 190.39 241.058 189.027 247.317 183.401C253.576 177.774 255.788 170.027 252.254 166.088C247.987 161.319 238.489 167.286 234.991 171.286Z" fill="#151515" stroke="#151515" stroke-width="0.25" stroke-linejoin="round"/>
<path d="M4 155V217L120.245 284.354V222.349L4 155Z" fill="white" fill-opacity="0.2" stroke="#151515" stroke-width="0.5" stroke-linejoin="round"/>
<path d="M4 217V279L120.226 346.436V284.354L4 217Z" fill="white" fill-opacity="0.2" stroke="#151515" stroke-width="0.5" stroke-linejoin="round"/>
<path d="M387.685 67.603V129.603L120.191 284.603V222.603L387.685 67.603Z" fill="white" fill-opacity="0.1" stroke="#151515" stroke-width="0.5" stroke-linejoin="round"/>
<path d="M387.685 129.603V191.603L120.191 346.603V284.603L387.685 129.603Z" fill="white" fill-opacity="0.1" stroke="#151515" stroke-width="0.5" stroke-linejoin="round"/>
<path opacity="0.05" d="M65.3017 314.277L4.25 155.422V278.853L65.3017 314.277Z" fill="white"/>
<path opacity="0.05" d="M76.2991 320.642L14.0352 161.14L23.529 166.605L86.2086 326.326L76.2991 320.642Z" fill="white"/>
<path opacity="0.05" d="M115.495 343.401L48.8281 181.328L119.966 222.517V345.995L115.495 343.401Z" fill="white"/>
<path d="M303.889 321.258C300.779 319.91 300.536 315.592 303.476 313.904L366.963 277.443C369.006 276.27 371.475 276.099 373.661 276.98C376.616 278.172 376.918 282.237 374.171 283.852L311.345 320.8C309.075 322.135 306.305 322.305 303.889 321.258Z" fill="#151515" fill-opacity="0.15" stroke="#151515" stroke-width="0.868213" stroke-miterlimit="10"/>
<path d="M301.554 278.841C303.747 274.091 307.87 269.578 312.769 266.132C317.668 262.687 323.321 260.323 328.558 259.848C333.789 259.377 337.54 260.905 339.46 263.659C341.38 266.415 341.525 270.481 339.362 275.211C337.2 279.939 333.075 284.453 328.167 287.906C323.259 291.358 317.59 293.732 312.359 294.203C307.128 294.675 303.361 293.157 301.434 290.408C299.506 287.658 299.361 283.593 301.554 278.841ZM314.477 290.159C318.438 289.807 322.683 288.03 326.348 285.452C330.014 282.873 333.122 279.479 334.791 275.871C336.464 272.27 336.4 269.091 334.853 266.892C333.306 264.692 330.335 263.557 326.381 263.915C322.425 264.272 318.181 266.05 314.514 268.627C310.848 271.203 307.737 274.595 306.068 278.203C304.399 281.809 304.461 284.986 306.006 287.182C307.551 289.378 310.519 290.51 314.477 290.159Z" fill="#595959" stroke="#151515" stroke-width="0.5" stroke-linejoin="round"/>
<mask id="path-34-inside-1" fill="white">
<path fill-rule="evenodd" clip-rule="evenodd" d="M334.338 258.03C339.696 260.183 341.465 265.885 338.254 272.907C333.885 282.463 321.616 291.093 311.047 292.045C300.477 292.997 295.56 285.928 299.992 276.328C304.114 267.401 314.949 259.357 324.957 257.502L364.9 171C365.237 170.288 365.753 169.676 366.397 169.223C367.042 168.769 367.792 168.491 368.576 168.414C369.358 168.343 370.146 168.479 370.859 168.809C371.571 169.139 372.185 169.651 372.636 170.293C373.088 170.935 373.362 171.685 373.432 172.468C373.501 173.25 373.363 174.037 373.032 174.749L334.338 258.03ZM313.12 287.502C320.932 286.809 329.936 280.476 333.229 273.358C336.531 266.252 332.872 261.05 325.068 261.756C317.265 262.462 308.253 268.782 304.959 275.9C301.666 283.019 305.308 288.196 313.12 287.502Z"/>
</mask>
<path fill-rule="evenodd" clip-rule="evenodd" d="M334.338 258.03C339.696 260.183 341.465 265.885 338.254 272.907C333.885 282.463 321.616 291.093 311.047 292.045C300.477 292.997 295.56 285.928 299.992 276.328C304.114 267.401 314.949 259.357 324.957 257.502L364.9 171C365.237 170.288 365.753 169.676 366.397 169.223C367.042 168.769 367.792 168.491 368.576 168.414C369.358 168.343 370.146 168.479 370.859 168.809C371.571 169.139 372.185 169.651 372.636 170.293C373.088 170.935 373.362 171.685 373.432 172.468C373.501 173.25 373.363 174.037 373.032 174.749L334.338 258.03ZM313.12 287.502C320.932 286.809 329.936 280.476 333.229 273.358C336.531 266.252 332.872 261.05 325.068 261.756C317.265 262.462 308.253 268.782 304.959 275.9C301.666 283.019 305.308 288.196 313.12 287.502Z" fill="#F2F5F7"/>
<path d="M338.254 272.907L338.709 273.115L338.254 272.907ZM334.338 258.03L333.884 257.82C333.826 257.944 333.822 258.087 333.873 258.214C333.923 258.342 334.024 258.443 334.151 258.494L334.338 258.03ZM311.047 292.045L311.092 292.543L311.047 292.045ZM299.992 276.328L300.446 276.538L299.992 276.328ZM324.957 257.502L325.049 257.994C325.208 257.965 325.343 257.859 325.411 257.712L324.957 257.502ZM364.9 171L364.449 170.786L364.446 170.79L364.9 171ZM368.576 168.414L368.53 167.916L368.527 167.917L368.576 168.414ZM373.432 172.468L373.93 172.423L373.432 172.468ZM373.032 174.749L372.578 174.538L372.578 174.539L373.032 174.749ZM333.229 273.358L332.775 273.147L332.775 273.148L333.229 273.358ZM313.12 287.502L313.076 287.004L313.076 287.004L313.12 287.502ZM304.959 275.9L305.413 276.11L304.959 275.9ZM338.709 273.115C340.348 269.531 340.742 266.227 339.991 263.51C339.236 260.778 337.338 258.697 334.524 257.566L334.151 258.494C336.695 259.516 338.361 261.363 339.027 263.776C339.698 266.204 339.372 269.261 337.8 272.699L338.709 273.115ZM311.092 292.543C316.485 292.057 322.276 289.619 327.263 286.112C332.25 282.604 336.478 277.994 338.709 273.115L337.8 272.699C335.661 277.377 331.57 281.859 326.688 285.294C321.806 288.728 316.178 291.08 311.002 291.547L311.092 292.543ZM299.538 276.119C297.278 281.014 297.35 285.385 299.484 288.43C301.619 291.476 305.701 293.028 311.092 292.543L311.002 291.547C305.823 292.013 302.161 290.507 300.303 287.856C298.445 285.205 298.274 281.242 300.446 276.538L299.538 276.119ZM324.866 257.011C319.773 257.955 314.492 260.467 309.967 263.863C305.443 267.259 301.642 271.562 299.538 276.119L300.446 276.538C302.464 272.167 306.141 267.985 310.567 264.663C314.993 261.342 320.134 258.905 325.049 257.994L324.866 257.011ZM325.411 257.712L365.354 171.209L364.446 170.79L324.503 257.293L325.411 257.712ZM365.352 171.214C365.652 170.58 366.112 170.035 366.685 169.632L366.11 168.814C365.395 169.316 364.823 169.996 364.449 170.786L365.352 171.214ZM366.685 169.632C367.259 169.228 367.927 168.98 368.624 168.912L368.527 167.917C367.657 168.002 366.825 168.311 366.11 168.814L366.685 169.632ZM368.621 168.912C369.316 168.849 370.016 168.97 370.649 169.263L371.068 168.355C370.276 167.989 369.4 167.837 368.53 167.916L368.621 168.912ZM370.649 169.263C371.282 169.556 371.826 170.01 372.227 170.581L373.045 170.005C372.543 169.291 371.861 168.722 371.068 168.355L370.649 169.263ZM372.227 170.581C372.629 171.151 372.872 171.817 372.934 172.512L373.93 172.423C373.853 171.553 373.548 170.719 373.045 170.005L372.227 170.581ZM372.934 172.512C372.995 173.207 372.873 173.906 372.578 174.538L373.485 174.96C373.854 174.168 374.007 173.293 373.93 172.423L372.934 172.512ZM372.578 174.539L333.884 257.82L334.791 258.241L373.485 174.96L372.578 174.539ZM332.775 273.148C331.174 276.609 328.168 279.908 324.581 282.43C320.995 284.953 316.874 286.667 313.076 287.004L313.164 288C317.179 287.644 321.465 285.845 325.157 283.248C328.849 280.652 331.99 277.226 333.683 273.568L332.775 273.148ZM325.113 262.254C328.91 261.911 331.566 263.013 332.904 264.915C334.243 266.818 334.382 269.69 332.775 273.147L333.682 273.569C335.378 269.92 335.339 266.638 333.722 264.34C332.106 262.042 329.03 260.896 325.023 261.258L325.113 262.254ZM305.413 276.11C307.014 272.65 310.023 269.354 313.61 266.833C317.197 264.312 321.319 262.597 325.113 262.254L325.023 261.258C321.014 261.621 316.728 263.419 313.035 266.014C309.342 268.61 306.198 272.033 304.506 275.69L305.413 276.11ZM313.076 287.004C309.273 287.342 306.62 286.242 305.284 284.343C303.948 282.444 303.81 279.575 305.413 276.11L304.506 275.69C302.815 279.344 302.852 282.623 304.466 284.918C306.081 287.214 309.154 288.356 313.164 288L313.076 287.004Z" fill="#151515" mask="url(#path-34-inside-1)"/>
<path d="M361.577 178.809L343.773 179.638L337.791 192.524L355.601 191.74L361.577 178.809Z" fill="#F2F5F7" stroke="#151515" stroke-width="0.5" stroke-linecap="round" stroke-linejoin="round"/>
<path d="M349.063 191.73L342.629 182.78L338.172 192.26L349.063 191.73Z" fill="white"/>
<path d="M354.574 191.481L345.996 179.814L361.222 178.999L355.431 191.481L354.574 191.481Z" fill="white"/>
<path d="M366.046 173.659L327.812 257.081C327.812 257.081 326.407 257.956 325.579 259.141C324.751 260.326 324.328 261.333 324.328 261.333L325.289 261.238L326.051 261.195C326.051 261.195 326.37 260.22 327.219 259.141C328.068 258.062 329.509 257.081 329.509 257.081C342.323 228.837 368.071 172.108 368.546 171.149C369.021 170.19 369.801 169.362 370.132 169.067C369.58 168.873 369.156 168.873 369.014 168.896C368.218 169.138 366.704 172.172 366.046 173.659Z" fill="white"/>
<path d="M337.791 192.5L340.048 195.709L353.965 195.265L355.602 191.716L337.791 192.5Z" fill="#595959" stroke="#151515" stroke-width="0.5" stroke-linecap="round" stroke-linejoin="round"/>
<path d="M232.582 184.267C230.73 185.339 229.59 187.318 229.59 189.458V242.795C229.59 245.107 232.094 246.55 234.094 245.391L280.115 218.733C281.968 217.661 283.108 215.682 283.108 213.542V160.205C283.108 157.893 280.604 156.45 278.604 157.609L232.582 184.267Z" fill="#595959"/>
<path fill-rule="evenodd" clip-rule="evenodd" d="M230.258 186.705L234.632 189.014L283.107 160.957V160.205C283.107 157.893 280.603 156.45 278.603 157.609L232.582 184.267C231.573 184.851 230.775 185.704 230.258 186.705Z" fill="#BCBCBC"/>
<path d="M235.883 186.265C234.031 187.338 232.891 189.316 232.891 191.457V244.794C232.891 247.105 235.394 248.548 237.394 247.39L283.416 220.732C285.268 219.659 286.409 217.68 286.409 215.54V162.203C286.409 159.892 283.905 158.449 281.905 159.607L235.883 186.265Z" fill="#F2F5F7"/>
<path fill-rule="evenodd" clip-rule="evenodd" d="M250.67 239.7L283.416 220.732C285.268 219.659 286.408 217.68 286.408 215.54V162.203C286.408 161.191 285.928 160.345 285.22 159.811L250.67 239.7Z" fill="white"/>
<path fill-rule="evenodd" clip-rule="evenodd" d="M246.064 180.368L232.891 210.295V238.997L263.355 170.352L246.064 180.368Z" fill="white"/>
<path fill-rule="evenodd" clip-rule="evenodd" d="M268.444 191.541C268.444 186.603 265.035 184.584 260.682 187.031C258.406 188.5 256.512 190.481 255.151 192.812C253.791 195.143 253.003 197.759 252.852 200.449C252.852 203.222 253.988 205.06 255.693 205.68V217.519C255.693 220.631 257.909 221.883 260.636 220.327C262.073 219.395 263.27 218.143 264.132 216.671C264.995 215.199 265.498 213.547 265.603 211.848V199.952C267.32 197.466 268.304 194.553 268.444 191.541Z" fill="#976AFC" stroke="#151515" stroke-width="0.25" stroke-miterlimit="10"/>
<path fill-rule="evenodd" clip-rule="evenodd" d="M264.348 186.005C265.347 187.217 265.843 188.761 265.735 190.323C265.609 193.36 264.637 196.303 262.928 198.825V210.63C262.82 212.336 262.311 213.993 261.441 215.467C260.57 216.942 259.363 218.193 257.916 219.12C257.391 219.432 256.813 219.646 256.211 219.752C257.029 221.127 258.7 221.443 260.632 220.338C262.068 219.406 263.266 218.155 264.128 216.682C264.99 215.21 265.494 213.559 265.598 211.859V199.952C267.322 197.456 268.306 194.53 268.44 191.507C268.462 188.125 266.803 186.106 264.348 186.005Z" fill="#4A11CB" stroke="#151515" stroke-width="0.25" stroke-linecap="round" stroke-linejoin="bevel"/>
<path d="M4 155L271.494 0L387.879 67.4476L120.386 222.448L4 155Z" fill="#F2F5F7" fill-opacity="0.1" stroke="#151515" stroke-width="0.5" stroke-linejoin="round"/>
</g>
<defs>
<clipPath id="clip0">
<rect width="399" height="385" fill="white"/>
</clipPath>
</defs>
</svg>